<svg xmlns="http://www.w3.org/2000/svg" xmlns:xlink="http://www.w3.org/1999/xlink" viewBox="0 0 473.36 326.73"><defs><style>.\32 3870dde-cda2-4f6a-b352-28fc9fff2deb{fill:#a2b1d3;}.\31 8b187d9-9296-4aa9-85e6-3243608c459c{fill:#30374e;}.ab73c788-d537-4520-88dc-d9ea336e0232{fill:#4775b1;}.\36 93dc4fc-b1ec-4692-b7af-592fc7e44adf{fill:#444053;}.\33 376f1f3-2692-4669-ac90-d13b835d883a{fill:#afc0e0;}.\31 1e1050a-2a6d-4a7f-bd28-03ed9e5dadcd,.b15c539e-4e29-4884-b5e7-b9041f7de8a3{fill:#fff;}.b15c539e-4e29-4884-b5e7-b9041f7de8a3{opacity:0.2;}.\31 94c4ccb-b49d-42cd-9934-98cad5453340,.\34 a99c357-9e64-49d8-a3a6-c9bbc597ca37,.a247d274-7504-4c17-bbef-0acafbf716a9,.b15c539e-4e29-4884-b5e7-b9041f7de8a3{isolation:isolate;}.a247d274-7504-4c17-bbef-0acafbf716a9,.bb2cbb93-84d0-4a9d-8a6a-8d7f1019640c{opacity:0.1;}.\33 9b4b639-1a84-416b-ad05-df41a06644df{fill:#e3e8f4;}.\37 914019a-986e-4423-9c94-bde3bd1d0fb5{fill:#69c;}.\34 0de02a2-cb31-4776-80b3-701a318fca2d{fill:none;stroke:#535461;stroke-miterlimit:10;stroke-width:0.83px;}.\31 94c4ccb-b49d-42cd-9934-98cad5453340{opacity:0.25;}.e3359034-fa6f-410e-b590-5342b749bb63{fill:url(#3db8eacf-149f-4ad2-b5dc-a25d5315fb6a);}.a9c43c53-5052-4b48-bde4-9e461f6f92e4{fill:#434175;}.c14f3cc4-cb9f-4e19-9b1a-8b308f51e045{fill:#334980;}.\35 37765ec-a054-4cb1-9795-36c076921cd5{fill:#537999;}.\34 a99c357-9e64-49d8-a3a6-c9bbc597ca37{opacity:0.05;}.a841f567-9f40-4795-a0a7-9ee9d70747e9{fill:#ee8e9e;}.\33 5ace1c7-e277-403a-beb6-7ee5f6d85800{fill:#565387;}.\31 a0e6fbb-b90e-4f2d-bca9-9c1d5cd692db{fill:#476883;}</style><linearGradient id="3db8eacf-149f-4ad2-b5dc-a25d5315fb6a" x1="371.14" y1="2097.57" x2="371.14" y2="2304.07" gradientTransform="matrix(1, 0, 0, -1, -29.72, 2421.1)" gradientUnits="userSpaceOnUse"><stop offset="0" stop-color="gray" stop-opacity="0.25"/><stop offset="0.54" stop-color="gray" stop-opacity="0.12"/><stop offset="1" stop-color="gray" stop-opacity="0.1"/></linearGradient></defs><title>fastest-downloader-on-android</title><g id="4dd09026-faf3-4c4d-8492-a457b0308b8a" data-name="图层 2"><g id="9107f0d1-f6a8-461e-97cc-e0c66d3d2c07" data-name="图层 1"><path class="23870dde-cda2-4f6a-b352-28fc9fff2deb" d="M3.64,172c8.37-13.67,27.29-11.28,40.7-4.15s26.81,17.78,41.57,15.74c12.45-1.73,22.66-12.58,28.18-25.11s7.13-26.65,8.69-40.48q2.93-26.07,5.85-52.17c.71-6.36,1.56-13.08,5.13-18.11,4.73-6.64,13.39-8.68,20.8-6.69s13.73,7.35,19.14,13.32c17.32,19.12,27.14,45,42.28,66.26,3.08,4.33,6.57,8.62,11.17,10.71,6.64,3,14.26.88,20.75-2.47,21.17-10.91,35.38-33.18,49.36-54,6.8-10.1,15.09-20.9,26.4-22,11.9-1.18,22.23,9,29.22,19.69,22.44,34.55,27.25,81.71,54.37,111.84a44.07,44.07,0,0,0,11.36,9.51,29.32,29.32,0,0,0,4.4,1.93c23.66,8.19,31.54,41.06,14,60.55l-1.15,1.25c-2.6,2.74-5.54,5.34-9.05,6.15-3.27.76-6.64-.12-9.88-1.06-20.69-6-41.14-15.27-62.53-14.82-20.82.42-40.56,10-61.15,13.49-13.84,2.33-27.92,1.86-41.92,1.36q-69.91-2.51-139.8-5.85c-23.12-1.06-46.26-2.08-69.38-3.26-17.81-.93-29.16-3-31.23-23.64C9.16,212-7.09,189.54,3.64,172Z"/><ellipse class="18b187d9-9296-4aa9-85e6-3243608c459c" cx="327.82" cy="311.07" rx="112.05" ry="15.66"/><path class="ab73c788-d537-4520-88dc-d9ea336e0232" d="M61.73,243.52s5.48-1.25,9.07,2.44c0,0-2.31,2.08-7.74-.22Z"/><path class="ab73c788-d537-4520-88dc-d9ea336e0232" d="M61.12,243.47s-3.25,4.6-1.19,9.32c0,0,2.81-1.35,2.73-7.24Z"/><path class="ab73c788-d537-4520-88dc-d9ea336e0232" d="M57.47,236.53s1.95-4.21,11.21.88c0,0-1,2.81-4.93,2.86S58.63,238.61,57.47,236.53Z"/><path class="ab73c788-d537-4520-88dc-d9ea336e0232" d="M56.88,236.28s-4.64-.22-4.37,10.34c0,0,3,.42,4.81-3.06S58.18,238.28,56.88,236.28Z"/><path class="ab73c788-d537-4520-88dc-d9ea336e0232" d="M53.65,228.06s2.08-7.34,11.82-2.86c0,0-1.7,6.72-10.71,5.25Z"/><path class="ab73c788-d537-4520-88dc-d9ea336e0232" d="M50,217.54s4.39-7.57,13.48-1.43c0,0-2.57,7-12.57,4Z"/><path class="ab73c788-d537-4520-88dc-d9ea336e0232" d="M48.32,207.42s5.24-7,14.26-1c0,0-5,6.2-14.15,2.66Z"/><path class="ab73c788-d537-4520-88dc-d9ea336e0232" d="M46.77,197.57s5.3-7.33,13.94-1.31c0,0-6.09,6.57-13.83,2.93Z"/><path class="ab73c788-d537-4520-88dc-d9ea336e0232" d="M46.69,188.75s5.46-9.35,13.55-3.81c0,0-6,8.12-13.43,5.5Z"/><path class="ab73c788-d537-4520-88dc-d9ea336e0232" d="M47.43,178.38s5.81-9.3,13.73-3c0,0-7.1,8.2-13.64,4.63Z"/><path class="ab73c788-d537-4520-88dc-d9ea336e0232" d="M48.93,169.06s7.06-8.84,13.92-6c0,0-7.34,9.38-14.11,8.2Z"/><path class="ab73c788-d537-4520-88dc-d9ea336e0232" d="M51,160.18s8.11-10.79,13.43-7.73c0,0-5.94,8.34-13.94,9.69Z"/><path class="ab73c788-d537-4520-88dc-d9ea336e0232" d="M54.17,149.83S61.3,141,67,142.67c0,0-6,9.08-13.74,9.83Z"/><path class="ab73c788-d537-4520-88dc-d9ea336e0232" d="M57,140.16s8-8.55,11.75-7.4c0,0-5.54,9.28-12,9.19Z"/><path class="ab73c788-d537-4520-88dc-d9ea336e0232" d="M59.83,131.21s6.68-10,10.72-9.55c0,0-3.86,8.79-10.65,10.51Z"/><path class="ab73c788-d537-4520-88dc-d9ea336e0232" d="M62.73,119.21s6-7.74,9.47-8c0,0-4.44,10.1-9.57,10.38Z"/><path class="ab73c788-d537-4520-88dc-d9ea336e0232" d="M64.39,111.24l5.22-15.64s1.25,13.74-5.81,18.52Z"/><path class="ab73c788-d537-4520-88dc-d9ea336e0232" d="M65.79,94.28S66,81.5,65.24,80.51c0,0,5.18,10.27.89,19.39Z"/><path class="ab73c788-d537-4520-88dc-d9ea336e0232" d="M53.39,227.91s-6.75-3.58-10.28,6.53c0,0,6,3.44,11.21-4.07Z"/><path class="ab73c788-d537-4520-88dc-d9ea336e0232" d="M49.8,217.15s-8.18-3.09-11.35,7.42c0,0,6.42,3.8,12.25-4.88Z"/><path class="ab73c788-d537-4520-88dc-d9ea336e0232" d="M48,208.05s-6.14-6.27-14.26,1c0,0,5.79,5.47,14.37.74Z"/><path class="ab73c788-d537-4520-88dc-d9ea336e0232" d="M46.57,197.59s-6.23-6.56-14,.56c0,0,6.91,5.7,14.11,1.06Z"/><path class="ab73c788-d537-4520-88dc-d9ea336e0232" d="M46.71,189S42,179.26,33.5,184.16c0,0,5.34,8.56,13,6.53Z"/><path class="ab73c788-d537-4520-88dc-d9ea336e0232" d="M47.91,178.31s-4.7-9.92-13.31-4.59c0,0,6.08,9,13,6.2Z"/><path class="ab73c788-d537-4520-88dc-d9ea336e0232" d="M49.79,169.05S47.45,158,40,157.49c0,0,2.36,11.67,8.93,13.65Z"/><path class="ab73c788-d537-4520-88dc-d9ea336e0232" d="M51.2,160.19s-1.52-13.41-7.66-13.47c0,0,.89,10.2,7.1,15.42Z"/><path class="ab73c788-d537-4520-88dc-d9ea336e0232" d="M54.78,149.4s-2.58-11.06-8.5-12c0,0,1.45,10.79,8.11,14.82Z"/><path class="ab73c788-d537-4520-88dc-d9ea336e0232" d="M57.71,140.19s-.83-11.65-4.52-13.12c0,0-1.5,10.7,3.59,14.68Z"/><path class="ab73c788-d537-4520-88dc-d9ea336e0232" d="M60.09,131.06s-1.31-12-5.11-13.41c0,0-.62,9.58,4.61,14.24Z"/><path class="ab73c788-d537-4520-88dc-d9ea336e0232" d="M63.31,120.13s-.68-9.76-3.47-11.87c0,0-1.9,10.87,2.22,13.93Z"/><path class="ab73c788-d537-4520-88dc-d9ea336e0232" d="M64,110.78,60.38,94.7s-2.59,13.55,4,19Z"/><path class="ab73c788-d537-4520-88dc-d9ea336e0232" d="M63.46,94.59S56.14,84.1,56.2,82.88c0,0,1.47,11.4,10.13,16.56Z"/><path class="ab73c788-d537-4520-88dc-d9ea336e0232" d="M64,91.32s-7.25-15.1-10.14-16.19c0,0,9.17,3.91,10.63,15.69Z"/><path class="693dc4fc-b1ec-4692-b7af-592fc7e44adf" d="M62.59,121.7l-.42-.1c4.09-17.43,4.66-28.42,1.62-30.94l.28-.34C67.29,93,66.78,103.85,62.59,121.7Z"/><path class="693dc4fc-b1ec-4692-b7af-592fc7e44adf" d="M50.86,162.65l-.64-.18c.45-1.6.94-3.23,1.47-4.84,4.57-14,8.36-27,10.69-36.91l.53-.31c-2.33,10-6,23.42-10.58,37.43C51.79,159.44,51.3,161.06,50.86,162.65Z"/><path class="693dc4fc-b1ec-4692-b7af-592fc7e44adf" d="M70.38,255.78c-.09-.09-9.22-9.08-16.24-25a96.44,96.44,0,0,1-7.72-29.37c-1.25-12.67.46-27,4.15-40.22l.53.55c-8.3,29.59-2.57,54.09,3.83,68.64,6.94,15.77,16,24.67,16.06,24.76Z"/><path class="ab73c788-d537-4520-88dc-d9ea336e0232" d="M80.43,208.38s3.32-.76,5.49,1.47c0,0-1.4,1.25-4.68-.14Z"/><path class="ab73c788-d537-4520-88dc-d9ea336e0232" d="M80.07,208.35s-2,2.78-.71,5.63c0,0,1.69-.83,1.66-4.38Z"/><path class="ab73c788-d537-4520-88dc-d9ea336e0232" d="M77.87,204.15s1.17-2.54,6.76.54a3,3,0,0,1-3,1.72A3.64,3.64,0,0,1,77.87,204.15Z"/><path class="ab73c788-d537-4520-88dc-d9ea336e0232" d="M77.51,204s-2.81-.13-2.65,6.25a3,3,0,0,0,2.91-1.85A3.64,3.64,0,0,0,77.51,204Z"/><path class="ab73c788-d537-4520-88dc-d9ea336e0232" d="M75.55,199s1.27-4.44,7.15-1.73c0,0-1,4.06-6.47,3.17Z"/><path class="ab73c788-d537-4520-88dc-d9ea336e0232" d="M73.37,192.68s2.65-4.57,8.15-.86c0,0-1.56,4.23-7.6,2.39Z"/><path class="ab73c788-d537-4520-88dc-d9ea336e0232" d="M72.33,186.55s3.17-4.25,8.62-.58c0,0-3,3.74-8.55,1.61Z"/><path class="ab73c788-d537-4520-88dc-d9ea336e0232" d="M71.39,180.6s3.2-4.43,8.43-.79c0,0-3.68,4-8.36,1.77Z"/><path class="ab73c788-d537-4520-88dc-d9ea336e0232" d="M71.35,175.27s3.32-5.65,8.19-2.3c0,0-3.62,4.91-8.12,3.32Z"/><path class="ab73c788-d537-4520-88dc-d9ea336e0232" d="M71.78,169s3.52-5.62,8.3-1.82c0,0-4.29,5-8.25,2.8Z"/><path class="ab73c788-d537-4520-88dc-d9ea336e0232" d="M72.7,163.37s4.26-5.35,8.42-3.6c0,0-4.44,5.67-8.52,5Z"/><path class="ab73c788-d537-4520-88dc-d9ea336e0232" d="M74,158s4.9-6.52,8.12-4.67c0,0-3.59,5-8.42,5.86Z"/><path class="ab73c788-d537-4520-88dc-d9ea336e0232" d="M75.87,151.75s4.31-5.35,7.79-4.32c0,0-3.62,5.49-8.3,5.94Z"/><path class="ab73c788-d537-4520-88dc-d9ea336e0232" d="M77.59,145.89s4.81-5.17,7.1-4.47c0,0-3.35,5.61-7.25,5.56Z"/><path class="ab73c788-d537-4520-88dc-d9ea336e0232" d="M79.29,140.48s4-6.06,6.48-5.78c0,0-2.33,5.32-6.44,6.36Z"/><path class="ab73c788-d537-4520-88dc-d9ea336e0232" d="M81,133.23s3.61-4.68,5.72-4.81c0,0-2.69,6.11-5.79,6.26Z"/><path class="ab73c788-d537-4520-88dc-d9ea336e0232" d="M82,128.41,85.19,119s.75,8.3-3.52,11.21Z"/><path class="ab73c788-d537-4520-88dc-d9ea336e0232" d="M82.9,118.16s.11-7.72-.34-8.32c0,0,3.13,6.2.54,11.72Z"/><path class="ab73c788-d537-4520-88dc-d9ea336e0232" d="M75.39,198.94s-4.08-2.17-6.23,3.94c0,0,3.64,2.08,6.78-2.46Z"/><path class="ab73c788-d537-4520-88dc-d9ea336e0232" d="M73.23,192.42s-5-1.87-6.86,4.49c0,0,3.88,2.3,7.4-2.95Z"/><path class="ab73c788-d537-4520-88dc-d9ea336e0232" d="M72.13,186.94s-3.71-3.79-8.62.58c0,0,3.5,3.32,8.69.45Z"/><path class="ab73c788-d537-4520-88dc-d9ea336e0232" d="M71.28,180.61s-3.76-4-8.46.34c0,0,4.18,3.44,8.52.64Z"/><path class="ab73c788-d537-4520-88dc-d9ea336e0232" d="M71.36,175.4s-2.85-5.89-8-2.93c0,0,3.23,5.18,7.84,4Z"/><path class="ab73c788-d537-4520-88dc-d9ea336e0232" d="M72.08,168.95s-2.84-6-8.06-2.78c0,0,3.68,5.42,7.86,3.74Z"/><path class="ab73c788-d537-4520-88dc-d9ea336e0232" d="M73.22,163.37s-1.42-6.69-5.91-7c0,0,1.42,7.06,5.4,8.25Z"/><path class="ab73c788-d537-4520-88dc-d9ea336e0232" d="M74.07,158s-.91-8.11-4.65-8.15c0,0,.54,6.17,4.29,9.33Z"/><path class="ab73c788-d537-4520-88dc-d9ea336e0232" d="M76.23,151.48s-1.56-6.69-5.13-7.28c0,0,.88,6.52,4.9,9Z"/><path class="ab73c788-d537-4520-88dc-d9ea336e0232" d="M78,145.91s-.51-7.06-2.73-7.94c0,0-.91,6.47,2.17,8.88Z"/><path class="ab73c788-d537-4520-88dc-d9ea336e0232" d="M79.45,140.39s-.79-7.24-3.09-8.11c0,0-.38,5.81,2.78,8.61Z"/><path class="ab73c788-d537-4520-88dc-d9ea336e0232" d="M81.39,133.78s-.42-5.9-2.08-7.18c0,0-1.15,6.57,1.34,8.42Z"/><path class="ab73c788-d537-4520-88dc-d9ea336e0232" d="M81.84,128.13l-2.21-9.72S78.06,126.6,82,129.9Z"/><path class="ab73c788-d537-4520-88dc-d9ea336e0232" d="M81.48,118.35s-4.42-6.34-4.39-7.08c0,0,.88,6.89,6.12,10Z"/><path class="ab73c788-d537-4520-88dc-d9ea336e0232" d="M81.82,116.36s-4.38-9.13-6.13-9.77a11.91,11.91,0,0,1,6.42,9.49Z"/><path class="693dc4fc-b1ec-4692-b7af-592fc7e44adf" d="M81,134.73l-.26-.06c2.49-10.54,2.82-17.18,1-18.7l.17-.21C83.8,117.37,83.49,123.94,81,134.73Z"/><path class="693dc4fc-b1ec-4692-b7af-592fc7e44adf" d="M73.87,159.49l-.39-.11c.27-1,.57-2,.89-2.91,2.75-8.46,5.05-16.31,6.46-22.32l.32-.19c-1.41,6-3.64,14.16-6.4,22.63C74.43,157.56,74.13,158.52,73.87,159.49Z"/><path class="693dc4fc-b1ec-4692-b7af-592fc7e44adf" d="M85.67,215.79a52.35,52.35,0,0,1-9.82-15.11,58.4,58.4,0,0,1-4.67-17.75,68.09,68.09,0,0,1,2.51-24.32l.32.33c-5,17.89-1.55,32.7,2.32,41.5a51.59,51.59,0,0,0,9.71,15Z"/><path class="3376f1f3-2692-4669-ac90-d13b835d883a" d="M98.15,236.54a15.87,15.87,0,0,0-3.11.89c-22.39,8.94-22,67.46-22,67.46H66.44s-2.08-25.11-11.12-60.94c-8.15-32.23,25.27-61.12,32.05-66.6l1.19-.93C122.21,188.78,98.15,236.54,98.15,236.54Z"/><path class="b15c539e-4e29-4884-b5e7-b9041f7de8a3" d="M91,177.43c-.78-.36-1.58-.7-2.43-1l-1.19.93c-6.79,5.48-40.2,34.37-32.05,66.6,9,35.83,11.1,60.93,11.1,60.93h3.71S68.09,279.78,59,243.95C50.91,211.86,84,183.08,91,177.43Z"/><path class="3376f1f3-2692-4669-ac90-d13b835d883a" d="M209.19,244c-9.06,35.83-11.11,60.93-11.11,60.93h-6.6s.42-61.16-23.54-68a13.09,13.09,0,0,0-1.58-.37s-24.07-47.76,9.6-60.12c0,0,.34.25,1,.75C183.14,182.15,217.42,211.35,209.19,244Z"/><path class="a247d274-7504-4c17-bbef-0acafbf716a9" d="M98.15,236.54a15.87,15.87,0,0,0-3.11.89,406.39,406.39,0,0,1-7.67-60.08l1.19-.93C122.21,188.78,98.15,236.54,98.15,236.54Z"/><path class="a247d274-7504-4c17-bbef-0acafbf716a9" d="M176.91,177.17a373.93,373.93,0,0,1-9,59.76,13.09,13.09,0,0,0-1.58-.37s-24.07-47.76,9.6-60.12C175.95,176.42,176.29,176.67,176.91,177.17Z"/><path class="39b4b639-1a84-416b-ad05-df41a06644df" d="M164.59,245.6q-3.49,13.75-8.17,28.22c-4.69,14.47-14.82,15.44-50.63,0a271.6,271.6,0,0,1-7.51-27.23c-8.66-37.7-19-109.53,3.08-183.32A274.64,274.64,0,0,1,129.24,0S148.15,21.71,162,63.26,184.74,166.21,164.59,245.6Z"/><circle class="3376f1f3-2692-4669-ac90-d13b835d883a" cx="132.25" cy="121.85" r="29.73"/><path class="7914019a-986e-4423-9c94-bde3bd1d0fb5" d="M153.33,121.87a21.08,21.08,0,0,1-34.45,16.31,21.3,21.3,0,0,1-4-4.29,20.75,20.75,0,0,1-1.36-2.24,21,21,0,0,1-2.4-9.78v-.5a21.11,21.11,0,0,1,15.36-19.8,21.8,21.8,0,0,1,5.08-.77h.63a21.08,21.08,0,0,1,21.1,21.07Z"/><path class="3376f1f3-2692-4669-ac90-d13b835d883a" d="M162,63.26c-33.73,16.15-60.68,0-60.68,0A274.64,274.64,0,0,1,129.24,0S148.15,21.71,162,63.26Z"/><path class="3376f1f3-2692-4669-ac90-d13b835d883a" d="M164.59,245.6q-2.37,9.31-5.27,18.95-1.38,4.59-2.91,9.26c-1.53,4.67-14.82,15.44-50.63,0,0,0-1.16-3.27-2.91-9.26-1.3-4.52-2.93-10.59-4.62-18,0,0,13.33,5.69,32.25,5.69A88.86,88.86,0,0,0,164.59,245.6Z"/><path class="39b4b639-1a84-416b-ad05-df41a06644df" d="M159.32,264.54q-1.38,4.59-2.91,9.26c-1.53,4.67-14.82,15.44-50.63,0,0,0-1.16-3.27-2.91-9.26C102.87,264.54,139.37,275,159.32,264.54Z"/><path class="b15c539e-4e29-4884-b5e7-b9041f7de8a3" d="M126.54,101.53l0,0-15.31,19.77v.5a21,21,0,0,0,2.4,9.78l18-30.86Z"/><path class="b15c539e-4e29-4884-b5e7-b9041f7de8a3" d="M131.43,119.38l-12.54,18.78a21.3,21.3,0,0,1-4-4.29l14.94-16Z"/><path class="b15c539e-4e29-4884-b5e7-b9041f7de8a3" d="M113.8,273.81a272,272,0,0,1-7.51-27.23c-8.66-37.7-19-109.54,3.08-183.32A275.65,275.65,0,0,1,133.79,6C131,2,129.23,0,129.23,0a274.61,274.61,0,0,0-27.89,63.26C79.21,137,89.59,208.88,98.26,246.58a272,272,0,0,0,7.51,27.23c14.15,6.1,25,7.37,33,6.69C131.95,280,123.67,278.07,113.8,273.81Z"/><path class="40de02a2-cb31-4776-80b3-701a318fca2d" d="M388.86,302.52s19.4-24.14,18.11-48.31a46.92,46.92,0,0,1,7.69-28.66,78.93,78.93,0,0,1,9.13-11.21"/><path class="ab73c788-d537-4520-88dc-d9ea336e0232" d="M423.06,199.12c-1.39,3.37.69,15.64.69,15.64s10.11-7.25,11.5-10.62a6.59,6.59,0,0,0-12.19-5h0Z"/><path class="ab73c788-d537-4520-88dc-d9ea336e0232" d="M405.31,213.62c.67,3.58,9.08,12.75,9.08,12.75s4.57-11.58,3.88-15.16a6.59,6.59,0,0,0-13,2.42Z"/><path class="ab73c788-d537-4520-88dc-d9ea336e0232" d="M392.64,245.66c2.38,2.75,14.28,6.42,14.28,6.42S405,239.79,402.6,237a6.59,6.59,0,0,0-10,8.63Z"/><path class="ab73c788-d537-4520-88dc-d9ea336e0232" d="M388.51,272.07c1.88,3.12,13,8.74,13,8.74s.18-12.45-1.7-15.56a6.59,6.59,0,1,0-11.28,6.82Z"/><path class="ab73c788-d537-4520-88dc-d9ea336e0232" d="M426.92,232.29c-3.38,1.35-15.63-.85-15.63-.85s7.35-10,10.74-11.39a6.59,6.59,0,1,1,4.89,12.24Z"/><path class="ab73c788-d537-4520-88dc-d9ea336e0232" d="M421.7,263.11c-3.63.28-14.66-5.49-14.66-5.49s10-7.38,13.65-7.66a6.59,6.59,0,0,1,1,13.15Z"/><path class="ab73c788-d537-4520-88dc-d9ea336e0232" d="M412.51,292.37c-3.53.89-15.38-2.93-15.38-2.93s8.63-9,12.16-9.85a6.59,6.59,0,0,1,3.22,12.78Z"/><path class="194c4ccb-b49d-42cd-9934-98cad5453340" d="M423.06,199.12c-1.39,3.37.69,15.64.69,15.64s10.11-7.25,11.5-10.62a6.59,6.59,0,0,0-12.19-5h0Z"/><path class="194c4ccb-b49d-42cd-9934-98cad5453340" d="M405.31,213.62c.67,3.58,9.08,12.75,9.08,12.75s4.57-11.58,3.88-15.16a6.59,6.59,0,0,0-13,2.42Z"/><path class="194c4ccb-b49d-42cd-9934-98cad5453340" d="M392.64,245.66c2.38,2.75,14.28,6.42,14.28,6.42S405,239.79,402.6,237a6.59,6.59,0,0,0-10,8.63Z"/><path class="194c4ccb-b49d-42cd-9934-98cad5453340" d="M388.51,272.07c1.88,3.12,13,8.74,13,8.74s.18-12.45-1.7-15.56a6.59,6.59,0,1,0-11.28,6.82Z"/><path class="194c4ccb-b49d-42cd-9934-98cad5453340" d="M426.92,232.29c-3.38,1.35-15.63-.85-15.63-.85s7.35-10,10.74-11.39a6.59,6.59,0,1,1,4.89,12.24Z"/><path class="194c4ccb-b49d-42cd-9934-98cad5453340" d="M421.7,263.11c-3.63.28-14.66-5.49-14.66-5.49s10-7.38,13.65-7.66a6.59,6.59,0,0,1,1,13.15Z"/><path class="194c4ccb-b49d-42cd-9934-98cad5453340" d="M412.51,292.37c-3.53.89-15.38-2.93-15.38-2.93s8.63-9,12.16-9.85a6.59,6.59,0,0,1,3.22,12.78Z"/><path class="40de02a2-cb31-4776-80b3-701a318fca2d" d="M389,301.51s27.52-14.21,36.14-36.83a46.9,46.9,0,0,1,18.65-23.09,78.82,78.82,0,0,1,12.87-6.54"/><path class="ab73c788-d537-4520-88dc-d9ea336e0232" d="M462.2,220.83c-2.63,2.52-5.71,14.58-5.71,14.58s12.18-2.54,14.82-5.05a6.6,6.6,0,1,0-9.11-9.55h0Z"/><path class="ab73c788-d537-4520-88dc-d9ea336e0232" d="M440.1,226.89c-.83,3.54,3.13,15.36,3.13,15.36s8.84-8.74,9.69-12.31a6.59,6.59,0,0,0-12.82-3Z"/><path class="ab73c788-d537-4520-88dc-d9ea336e0232" d="M415.52,251.06c1.06,3.48,10.45,11.66,10.45,11.66s3.22-12,2.16-15.5a6.59,6.59,0,1,0-12.61,3.84Z"/><path class="ab73c788-d537-4520-88dc-d9ea336e0232" d="M401,273.52c.46,3.61,8.33,13.26,8.33,13.26s5.21-11.3,4.75-14.92A6.59,6.59,0,0,0,401,273.52Z"/><path class="ab73c788-d537-4520-88dc-d9ea336e0232" d="M452.29,252.72c-3.64-.13-13.94-7.11-13.94-7.11s10.79-6.2,14.43-6.06a6.59,6.59,0,1,1-.49,13.17Z"/><path class="ab73c788-d537-4520-88dc-d9ea336e0232" d="M435,278.78c-3.43-1.22-11.18-11-11.18-11s12.16-2.69,15.58-1.47a6.59,6.59,0,1,1-4.4,12.43Z"/><path class="ab73c788-d537-4520-88dc-d9ea336e0232" d="M414.77,301.81c-3.59-.62-12.87-8.91-12.87-8.91s11.53-4.7,15.11-4.08a6.59,6.59,0,0,1-2.24,13h0Z"/><path class="e3359034-fa6f-410e-b590-5342b749bb63" d="M428.16,288.17l-21.33-30.93s-.42-7.66-1.79-9.45-.3-5.77-.3-5.77,1.49-2.19.2-2.39-.2-5.08-.2-5.08l-.1-7.76s1.2-7.47.2-9.25a2.93,2.93,0,0,1,.1-3.18s1.2-4.28,0-5.37-.9-7.76-.6-13-2.1-8.25-2.1-9.05-7.89-8.55-7.89-9.25-5-3.58-8-4.38-4.49-1.39-4.39-1.79-4.69-2-4.69-2-4.19-.3-5.79-2.39-6.47-2.69-6.61-2.71l-.09-.42-.09-.45c.38-.63.73-1.28,1-2l.27-.61a8.51,8.51,0,0,0,4.91-1.52,6.69,6.69,0,0,0,2.39-4.77,10.45,10.45,0,0,0-1.17-5.3c-.87-1.79-2.15-3.65-1.71-5.59.2-.83.7-1.58,1-2.4a6.32,6.32,0,0,0-.72-4.71c-.76-1.44-1.81-2.71-2.64-4.11a16.06,16.06,0,0,1-2.1-5.81,9.08,9.08,0,0,0-.78-3.17,5.9,5.9,0,0,0-1.75-1.76,17.46,17.46,0,0,0-10.72-3.25c-2.71.1-5.42.83-8.11.49a29.2,29.2,0,0,1-4.74-1.25c-3.35-1-7.2-1.39-10.11.52s-4.07,5.68-6,8.62c-1.74,2.61-4.3,4.79-5.63,7.54a.59.59,0,0,1,0-.16,9,9,0,0,0-.74,2,14.31,14.31,0,0,0,.44,6.59,4.58,4.58,0,0,0,1.61,2.95c1,.62,2.34.48,3.48.68,0,.19-.09.38-.13.57a22.78,22.78,0,0,0,15.81,26.56v.61a15.08,15.08,0,0,1-.1,1.71h0s-10-2.08-12.72-.66-8,2.49-8.77,3.28-2.79.2-4.57,4.88-2,9.45-4.29,11.62-3.49,3.68-3.59,5.27.3,2-.6,2.49-2.19,2.59-1.79,3.38a2.83,2.83,0,0,1-1.1,3,3.33,3.33,0,0,0-1.4,3s-.6,2.19-2,2.69-2.3,3.78-2.3,3.78L290.84,224l-9-9.92a3.78,3.78,0,0,0-5.33-.27l-4.4,4a8.69,8.69,0,0,0-4.4,2.62,11.35,11.35,0,0,0-2.28,3.39l-2.41,2.17a6.12,6.12,0,0,0-.62,6.76l5.74,6.35,0,.05a10.14,10.14,0,0,0-5.55,2.26c-8.57,7.56-8.67,14.53-7.37,17.7s12.16,15.42,12.16,15.42,6.31,8.2,15.43,12.57h0l-.07.07c-.18.19-.36.42-.53.62l-.15.19-.14.19-.16.24-.13.2-.17.29-.11.19-.2.39-.07.13c-.08.17-.17.35-.24.54l-.08.2c0,.13-.1.26-.15.42s-.06.17-.09.26l-.13.39-.08.28c0,.09-.08.29-.12.44l-.07.27c-.05.23-.11.46-.15.71a1.76,1.76,0,0,1,0,.28q0,.25-.09.51c0,.12,0,.24,0,.36s0,.33-.06.49l0,.38c0,.18,0,.37,0,.56a2,2,0,0,1,0,.35c0,.32,0,.63,0,1-.2,11.62.48,13.33.48,13.33a6.46,6.46,0,0,0,5.29,4,6.76,6.76,0,0,0,1.71-.09c5.18-.9,17.34-3,21.63-2.19,2.58.48,7.35-.23,10.75-.87l.89-.17.62,2,2-.54,1.66,1,1.06.61c2,6.67,10,4.4,10,4.4l1.88,1.09,19.24.5a39.41,39.41,0,0,0,6.81,3.27,6.33,6.33,0,0,0,1,.21,43.66,43.66,0,0,0,5.36.1c1.47,0,2.61-.1,2.61-.1s-.2-5.23-.48-11.07a157.65,157.65,0,0,0,17.82-1.46c10.28-1.81,14.56-11.15,16.14-16.14a47,47,0,0,1,1,6.2,44.3,44.3,0,0,0,1.6,5.37,18.15,18.15,0,0,0,2.19,4c7.58-2.59,3-6.46,1.39-8.16s1.1-3.08,1.1-3.08,2.08-1.39,1.89-2.69-.3-2.69,6.48-2.59S428.16,288.17,428.16,288.17Zm-105.27-63.5c.09.57,1,6.7,1.89,8.3a11,11,0,0,1,.22,3.27c-4-.32-8.2-.49-8.2-.49a1,1,0,0,1,.22.51l-.63-.14-.92-.22,7.4-11.26ZM308.23,248l7,1.1.59.09a22.87,22.87,0,0,0-.36,3.28c0,.1.16.23.38.37a9,9,0,0,0-.14,1.66c.11.55,3.36,1.74,7.09,2.73,0,.2-.1.39-.15.57h0c-3.29-1.73-8.48-2.54-9.08-3.83s-18.26-7.47-18.26-7.47-.64-.34-1.76-.88l4.65.88,1.28-.13a69.69,69.69,0,0,0,8.81,1.61Z"/><path class="a9c43c53-5052-4b48-bde4-9e461f6f92e4" d="M405.47,292.5s-2.76,16.7-16.8,19.17-60.87,2-60.87,2-26.78-3.85-36.46-26.48-15.91-31.62-7.61-32,53.06,15.12,55.61,15.31S407.94,236.08,405.47,292.5Z"/><path class="c14f3cc4-cb9f-4e19-9b1a-8b308f51e045" d="M405.47,292.5s-2.76,16.7-16.8,19.17-60.87,2-60.87,2-26.78-3.85-36.46-26.48-15.91-31.62-7.61-32,53.06,15.12,55.61,15.31S407.94,236.08,405.47,292.5Z"/><path class="537765ec-a054-4cb1-9795-36c076921cd5" d="M279.87,311.07a6.41,6.41,0,0,0,5.25,3.95,6.82,6.82,0,0,0,1.69-.09c5.14-.89,17.19-3,21.44-2.17,2.56.48,7.28-.23,10.65-.86,2.24-.42,3.88-.83,3.88-.83s-4-13.14-4.45-13.53-17.78-10.77-17.78-10.77l-13.7-1h0a7.2,7.2,0,0,0-4.64,2.73c-1.45,1.75-2.69,4.62-2.77,9.33C279.19,309.39,279.87,311.07,279.87,311.07Z"/><path class="4a99c357-9e64-49d8-a3a6-c9bbc597ca37" d="M279.87,311.07a6.41,6.41,0,0,0,5.25,3.95,56.25,56.25,0,0,1-3.74-5.43l.07-9.58a16.84,16.84,0,0,1,5.4-14.22h0s-7.21.49-7.41,12S279.87,311.07,279.87,311.07Z"/><path class="a247d274-7504-4c17-bbef-0acafbf716a9" d="M339.27,290.13l12.75-10,20.06-19.76-5.43-.24c-.83.52-3.09,2.15-3.17,4.15-.1,2.42-5.42.17-8.19,1.55s-16.3,18.71-18.68,18.6-4.25-1.2-5.24.48c0,0,0,.07-.07.11Z"/><path class="a247d274-7504-4c17-bbef-0acafbf716a9" d="M282.16,288.51c.45.22.91.42,1.38.63,9.69,4.15,21.64,12.87,22.53,14.43.54,1,7.47,5.17,12.82,8.33,2.24-.42,3.88-.83,3.88-.83s-4-13.14-4.45-13.53-17.78-10.77-17.78-10.77l-13.7-1h0A7.23,7.23,0,0,0,282.16,288.51Z"/><path class="c14f3cc4-cb9f-4e19-9b1a-8b308f51e045" d="M255.29,260.19c1.28,3.16,12,15.32,12,15.32s6.81,8.89,16.5,13,21.64,12.87,22.53,14.43c.57,1,8.3,5.66,13.73,8.86l1.22.71,2.7,1.56,1.43.83s3.32-2.66,6.6-5.33,6.49-5.29,6.54-5.44,1.38-3.66,1.08-3.85-.83-1.47-2.08-3.06a14,14,0,0,0-5-4.15,14.18,14.18,0,0,1-6.52-6.8s-.42-.32-1.09-.73a13.22,13.22,0,0,0-4.44-2c-2.18-.27-6.23-4.72-6.23-4.72a12.2,12.2,0,0,1-3.86-4.05c-1-2.17-16.36-12.69-17.78-13.66L329.77,285l8.89,5.71,12.75-10L371.47,261s-2.7-.13-6.64-.3c-9.75-.42-27.06-1.08-29.25-.59a16.67,16.67,0,0,1-5.44.35s-4.93.22-8.19-1.5-8.4-2.53-9-3.8-18.08-7.41-18.08-7.41-23.81-12.65-32.31-5.13S254,257,255.29,260.19Z"/><path class="11e1050a-2a6d-4a7f-bd28-03ed9e5dadcd" d="M332.06,187.67l3.06,10.18,4,22.92,14.53,1,4.2-7,4.21-7s2.61-9.26,4.49-18.22c1.66-7.93,2.75-15.62.94-16.46-1.6-.74-2.66-3.41-3.32-6.28-.09-.35-.17-.71-.24-1.07a55.87,55.87,0,0,1-1-7.37s-30.43-1.58-26.18,11a20,20,0,0,1,1.15,6.67,15.87,15.87,0,0,1-.1,1.7A14.24,14.24,0,0,1,332.06,187.67Z"/><path class="39b4b639-1a84-416b-ad05-df41a06644df" d="M325.73,186l1.09,17.29L329.29,218l2.77,6.82,2.47,37.3s23.83,2.76,29.62,0a2.55,2.55,0,0,0,1.05-.83c7-10.55,4.7-41.17,4.7-41.17l2.67-19.77L370.78,190l-4.3-.46-3.32-.35s-.75.92-1.83,2.34c-2.93,3.87-8.3,11.48-8,14.65.49,4.35-.59,8.79-2.27,9.49s-3.06,1.88-3.36.69a5.37,5.37,0,0,1-.3-3.16c.29-1.68-1.29-6.82-1.29-6.82s-2.66-6-2.49-8.6-.29-5.54-1.09-6.23-1.88-1.39-1-4.57-3.9-9.32-3.9-9.32Z"/><path class="a247d274-7504-4c17-bbef-0acafbf716a9" d="M357.2,229.17l1,29.55,5.71,3.16a2.55,2.55,0,0,0,1.05-.83c7-10.57,4.71-41.18,4.71-41.18l2.67-19.76-1.78-10.26-4.3-.46c1.66-7.93,2.75-15.62.94-16.46-1.61-.74-2.66-3.41-3.35-6.28h0l-3.07,20.92s.26,1.88.35,3.83a11,11,0,0,1-.25,3.68c-.69,1.78-.2,4.94-.2,4.94-1.78,3.14-2.67,9-3.1,14.57C357,222.05,357.2,229.17,357.2,229.17Z"/><path class="537765ec-a054-4cb1-9795-36c076921cd5" d="M363.93,166.2s5,.62,6.56,2.69,5.73,2.36,5.73,2.36,4.74,1.58,4.64,2,1.38,1,4.35,1.78,7.89,3.66,7.89,4.35,7.81,8.4,7.81,9.19,2.37,3.74,2.08,9-.59,11.86.59,12.94,0,5.34,0,5.34a2.91,2.91,0,0,0-.06,3.16c1,1.78-.2,9.19-.2,9.19l.1,7.71s-1.09,4.84.2,5-.2,2.37-.2,2.37-1.09,4,.3,5.73,1.78,9.39,1.78,9.39l21.17,30.71s.3,5.63-6.42,5.53-6.64,1.29-6.42,2.57-1.88,2.67-1.88,2.67-2.67,1.38-1.09,3.06,6.13,5.53-1.38,8.1a17.91,17.91,0,0,1-2.17-4,44.7,44.7,0,0,1-1.58-5.33s-.69-7.51-2.08-8.5-1.19-5.73-1.19-5.73,2-3.85-.79-5.43-42.93-23.79-42.93-23.79l-1-29.55s-.69-21.83,3.46-29.15c0,0-.49-3.16.2-4.94s-.1-7.51-.1-7.51Z"/><path class="a247d274-7504-4c17-bbef-0acafbf716a9" d="M338,178.05s-9.93-2-12.6-.66-7.89,2.49-8.72,3.26-2.77.2-4.54,4.84-2,9.38-4.25,11.56-3.46,3.66-3.56,5.24.29,2-.59,2.49-2.17,2.57-1.78,3.36,20.59,18.16,20.59,18.16,1,6.64,1.88,8.3-1,24.8-3,26.38,13.34,1.44,13.34,1.44.69-15.17,1.28-16-.42-17-.42-17-.1-13.83,1.19-17.49,1.14-15.8,1.14-15.8,1.14-7.29,2.52-9S338,178.05,338,178.05Z"/><path class="537765ec-a054-4cb1-9795-36c076921cd5" d="M337.74,177.76s-9.94-2-12.6-.66-7.89,2.47-8.69,3.26-2.76.2-4.57,4.84-2,9.39-4.25,11.56-3.46,3.66-3.56,5.24.3,2-.59,2.47-2.17,2.57-1.78,3.36S322.25,226,322.25,226s1,6.64,1.88,8.3-1,24.8-3,26.38,13.34,1.44,13.34,1.44.69-15.17,1.29-16-.42-17-.42-17-.1-13.83,1.19-17.49,1.14-15.81,1.14-15.81,1.14-7.29,2.51-9S337.74,177.76,337.74,177.76Z"/><path class="a247d274-7504-4c17-bbef-0acafbf716a9" d="M336.69,169.38a20,20,0,0,1,1.15,6.67,22.67,22.67,0,0,0,26-10.28,55.87,55.87,0,0,1-1-7.37S332.45,156.84,336.69,169.38Z"/><path class="11e1050a-2a6d-4a7f-bd28-03ed9e5dadcd" d="M321.68,153.77a22.63,22.63,0,1,0,.49-4.7A22.63,22.63,0,0,0,321.68,153.77Z"/><path class="537765ec-a054-4cb1-9795-36c076921cd5" d="M307.15,206.14l-5.43,1.68a2.82,2.82,0,0,1-1.09,3,3.31,3.31,0,0,0-1.38,3s-.59,2.17-2,2.66-2.27,3.74-2.27,3.74l-4.54,5.24s-1.68,1.38-1.38,2.08-1.78.89-1.78.89l1.09,17.6,9.39,1.78,5.81-.59,4.74-1.78,4.15-2.49,1.89-4.8,8.3-12.65Z"/><path class="a841f567-9f40-4795-a0a7-9ee9d70747e9" d="M288.68,229.77s-12-17.39-21-8,3.66,24.6,6.62,24.11,17.09-1.28,17.09-1.28Z"/><rect class="18b187d9-9296-4aa9-85e6-3243608c459c" x="266.28" y="218.95" width="25.49" height="28.97" rx="5.24" ry="5.24" transform="translate(-84.52 246.98) rotate(-42.05)"/><rect class="a247d274-7504-4c17-bbef-0acafbf716a9" x="266.28" y="218.95" width="25.49" height="28.97" rx="5.24" ry="5.24" transform="translate(-84.52 246.98) rotate(-42.05)"/><rect class="18b187d9-9296-4aa9-85e6-3243608c459c" x="266.62" y="217.52" width="25.49" height="28.97" rx="5.24" ry="5.24" transform="translate(-83.47 246.84) rotate(-42.05)"/><circle class="ab73c788-d537-4520-88dc-d9ea336e0232" cx="279.05" cy="232.72" r="5.63"/><circle class="a247d274-7504-4c17-bbef-0acafbf716a9" cx="279.05" cy="232.72" r="5.63"/><circle class="7914019a-986e-4423-9c94-bde3bd1d0fb5" cx="279.37" cy="232" r="5.63"/><path class="11e1050a-2a6d-4a7f-bd28-03ed9e5dadcd" d="M280.88,233.41c-.1,13,26.88,15.81,26.88,15.81l6.89,1.1,3.09.49L319,238.07s-1.42-.21-3.18-.62c-2.61-.61-6-1.66-6.7-3.13C307.95,231.84,281,220.37,280.88,233.41Z"/><path class="a247d274-7504-4c17-bbef-0acafbf716a9" d="M322.17,149.07a2.69,2.69,0,0,1,1.66.74c.76.81.81,2.25,1.8,2.74a2,2,0,0,0,1.18.14c2.63-.37,4.15-3.32,6.67-4.15a6.72,6.72,0,0,1,4.42.38,3.29,3.29,0,0,1,1.47.94c.83,1.09.25,2.7.64,4,.54,1.83,2.73,2.56,4.63,2.81s4,.37,5.3,1.81a4.81,4.81,0,0,1,.94,3.82,3,3,0,0,0,0,1.42c.52,1.48,3.09,1.25,3.76.09.49-.85.34-1.56,1.49-1.79a4.92,4.92,0,0,1,2.42.42,17.73,17.73,0,0,0,6.26,1,22.63,22.63,0,1,0-42.63-14.33Z"/><path class="18b187d9-9296-4aa9-85e6-3243608c459c" d="M350.86,163.13a3,3,0,0,1,0-1.42,4.81,4.81,0,0,0-.94-3.82c-1.25-1.43-3.4-1.57-5.3-1.81s-4.09-1-4.63-2.8c-.39-1.32.2-2.93-.64-4a3.24,3.24,0,0,0-1.46-.94,6.82,6.82,0,0,0-4.42-.38c-2.52.83-4,3.78-6.67,4.15a2,2,0,0,1-1.18-.14c-1-.5-1-1.93-1.8-2.74-1.2-1.27-3.48-.45-4.95-1.39a4.55,4.55,0,0,1-1.59-2.93,14.25,14.25,0,0,1-.44-6.55c.86-3.68,4.15-6.2,6.23-9.33,2-2.93,3.05-6.64,6-8.57s6.71-1.5,10-.51a30.93,30.93,0,0,0,4.69,1.25c2.67.33,5.35-.42,8-.49a17.27,17.27,0,0,1,10.62,3.22,5.88,5.88,0,0,1,1.73,1.76,9,9,0,0,1,.77,3.15,16.08,16.08,0,0,0,2.08,5.78c.83,1.39,1.87,2.65,2.62,4.09a6.27,6.27,0,0,1,.71,4.68c-.25.83-.76,1.55-.94,2.38-.44,1.93.83,3.77,1.7,5.55a10.42,10.42,0,0,1,1.15,5.27,6.64,6.64,0,0,1-2.37,4.74,8.5,8.5,0,0,1-5,1.52,17.75,17.75,0,0,1-6.38-1,5,5,0,0,0-2.42-.42c-1.15.24-1,.94-1.49,1.79C353.95,164.39,351.39,164.61,350.86,163.13Z"/><path class="a247d274-7504-4c17-bbef-0acafbf716a9" d="M338.67,290.72l12.75-10L371.48,261s-2.7-.13-6.64-.3a4.29,4.29,0,0,0-1.4,2.7c-.1,2.42-5.42.17-8.19,1.55s-16.3,18.7-18.68,18.59-4.25-1.2-5.24.48l-.07.11a2.81,2.81,0,0,1-1.51.89Z"/><path class="c14f3cc4-cb9f-4e19-9b1a-8b308f51e045" d="M313,290l6.4,20.44,1,3.21,3.05-.83,6.72-1.85,29.95-8.23a26.09,26.09,0,0,0,10.79-2.88,32.64,32.64,0,0,1,18.61-4.06c4,.37,8.36-1.34,12-8.08,0,0,8.3-24.49-12.65-31.54S367,260,367,260l-.28.17c-.83.52-3.09,2.15-3.17,4.15-.1,2.42-5.42.17-8.19,1.55s-16.3,18.71-18.68,18.6-4.25-1.2-5.24.48c0,0,0,.07-.07.11-.73,1-2.93,1.25-4.39,1.28-.79,0-1.37,0-1.37,0l-.19.06-1.55.43Z"/><path class="a247d274-7504-4c17-bbef-0acafbf716a9" d="M314.64,250.31l3.09.49L319,238.07s-1.42-.21-3.18-.62C316.3,239.21,315.24,246.09,314.64,250.31Z"/><path class="a247d274-7504-4c17-bbef-0acafbf716a9" d="M395.44,190.76s9.19-2.67,6.91,23.42-19.27,42.57-19.27,42.57-19.56,8.6-28.36,7.21a150.73,150.73,0,0,0-15.21-1.66,22.32,22.32,0,0,0-8.89-2.37c-4.94-.2-15.31-3.26-15.51-4.25s2.57-15.51,1.38-16.6c0,0,13.83.57,15.22,1.57s3.36.28,4.84,0,6-4.24,15-.78c0,0,3.06.29,4.25-.49a4.25,4.25,0,0,1,3.09-.2,8.09,8.09,0,0,0,2.15-1.11c.29-.42,2.66,0,2.66,0a1.05,1.05,0,0,0,1.49-.69,6.46,6.46,0,0,1,1.38-2.17s2.67-15,7.71-20.65a3.23,3.23,0,0,0,1.09-2.87C375,210.11,383.59,187.59,395.44,190.76Z"/><path class="537765ec-a054-4cb1-9795-36c076921cd5" d="M395.21,188.75s9.19-2.67,6.92,23.42-19.29,42.58-19.29,42.58-19.56,8.6-28.36,7.21-15.21-1.68-15.21-1.68a22.29,22.29,0,0,0-8.89-2.37c-4.94-.2-15.31-3.26-15.51-4.25s2.57-15.51,1.39-16.6c0,0,13.83.57,15.21,1.57s3.36.28,4.84,0,6-4.23,15-.78c0,0,3.06.29,4.25-.49a4.26,4.26,0,0,1,3.09-.2,8.7,8.7,0,0,0,2.15-1.09c.29-.39,2.67,0,2.67,0a1.05,1.05,0,0,0,1.48-.69,6.45,6.45,0,0,1,1.38-2.17s2.67-15,7.71-20.65a3.22,3.22,0,0,0,1.09-2.86C374.74,208.12,383.33,185.59,395.21,188.75Z"/><path class="a247d274-7504-4c17-bbef-0acafbf716a9" d="M323.83,286.78l13,15.77s.08-.08.08-.09c.1-.3,1.38-3.66,1.09-3.86s-2.57-5.14-7.11-7.21a13.37,13.37,0,0,1-5.59-5.08Z"/><path class="a247d274-7504-4c17-bbef-0acafbf716a9" d="M324,314.11l1.43.83s3.32-2.66,6.6-5.33,6.49-5.29,6.54-5.44,1.38-3.66,1.08-3.85-.83-1.47-2.08-3.06c-8.85-2.49-3.22,3.66-2.47,3.95,0,0-10.79-2.49-11.36,9.26A13.85,13.85,0,0,0,324,314.11Z"/><path class="537765ec-a054-4cb1-9795-36c076921cd5" d="M334.92,319.08l1.88,1.09,19.09.49a36.88,36.88,0,0,0,6.75,3.25,5.78,5.78,0,0,0,1,.21,42.86,42.86,0,0,0,5.31.1c1.46,0,2.59-.1,2.59-.1s-.9-24.07-1.59-26.56c-.32-1.21-1.92-.95-3.5-.34a22.9,22.9,0,0,0-3.42,1.73s-8.1.78-9.39,1.48-4.94-.42-7.21,0-6.32-2.68-6.32-2.68c-11.07-3.65-4.84,3.16-4.05,3.46,0,0-10.77-2.49-11.36,9.26S334.92,319.08,334.92,319.08Z"/><path class="35ace1c7-e277-403a-beb6-7ee5f6d85800" d="M362.49,309.79c.21,5,4.09,11.16,6.4,14.43,1.46,0,2.59-.1,2.59-.1s-.9-24.07-1.59-26.56c-.32-1.21-1.92-.95-3.5-.34C364.5,300.78,362.32,305.78,362.49,309.79Z"/><path class="a247d274-7504-4c17-bbef-0acafbf716a9" d="M362.49,309.79c.21,5,4.09,11.16,6.4,14.43,1.46,0,2.59-.1,2.59-.1s-.9-24.07-1.59-26.56c-.32-1.21-1.92-.95-3.5-.34C364.5,300.78,362.32,305.78,362.49,309.79Z"/><path class="1a0e6fbb-b90e-4f2d-bca9-9c1d5cd692db" d="M359.23,310.45c1.31,4.81,1.3,10.2,3.39,13.45a5.78,5.78,0,0,0,1,.21,42.86,42.86,0,0,0,5.31.1c1.46,0,2.59-.1,2.59-.1s-.9-24.07-1.59-26.56c-.32-1.21-1.92-.95-3.5-.34a22.9,22.9,0,0,0-3.42,1.73S357.55,304.3,359.23,310.45Z"/><path class="a247d274-7504-4c17-bbef-0acafbf716a9" d="M293.44,261.7s9.47,3.08,17.5,14Z"/><g class="bb2cbb93-84d0-4a9d-8a6a-8d7f1019640c"><path d="M370.41,143.14a1.94,1.94,0,0,1-.06.21,6.7,6.7,0,0,1-.33.83A6.2,6.2,0,0,1,370.41,143.14Z"/><path d="M316.82,138.35a8.91,8.91,0,0,1,.73-2c0,.17-.1.34-.15.51a14.25,14.25,0,0,0,.44,6.55,4.56,4.56,0,0,0,1.59,2.93c1.47.94,3.74.12,4.95,1.39.76.81.81,2.25,1.8,2.74a2,2,0,0,0,1.18.14c2.62-.37,4.15-3.32,6.67-4.15a6.7,6.7,0,0,1,4.42.38,3.24,3.24,0,0,1,1.46.94c.83,1.09.25,2.7.64,4,.54,1.83,2.73,2.56,4.63,2.8s4,.37,5.3,1.81a4.81,4.81,0,0,1,.94,3.82,3.08,3.08,0,0,0,0,1.42c.52,1.48,3.09,1.25,3.74.09.49-.85.34-1.56,1.5-1.79a4.91,4.91,0,0,1,2.42.42,17.75,17.75,0,0,0,6.38,1,8.46,8.46,0,0,0,5-1.52,5.81,5.81,0,0,0,1.54-1.87,6.28,6.28,0,0,1-2.12,3.35,8.48,8.48,0,0,1-5,1.52,17.72,17.72,0,0,1-6.38-1,5,5,0,0,0-2.42-.42c-1.15.24-1,.94-1.49,1.79-.67,1.17-3.23,1.39-3.76-.09a3.08,3.08,0,0,1,0-1.42,4.8,4.8,0,0,0-.94-3.82c-1.27-1.43-3.41-1.57-5.3-1.81s-4.09-1-4.63-2.8c-.39-1.32.2-2.93-.64-4a3.27,3.27,0,0,0-1.47-.94,6.81,6.81,0,0,0-4.42-.38c-2.52.83-4,3.78-6.67,4.15a2,2,0,0,1-1.18-.14c-1-.5-1-1.93-1.8-2.74-1.2-1.27-3.47-.45-4.94-1.39a4.55,4.55,0,0,1-1.6-2.93A14.32,14.32,0,0,1,316.82,138.35Z"/></g><path class="a247d274-7504-4c17-bbef-0acafbf716a9" d="M371.94,217.43c-1.81,2.44-3.88,4.71-5.48,7.29a13.83,13.83,0,0,0-2.4,8.62c1.66-1.7,2.42-4.05,3.46-6.18,1.77-3.61,4.42-6.67,6.64-10,.42-.63,3.16-4.3,1.78-4.47C374.8,212.55,372.56,216.59,371.94,217.43Z"/></g></g></svg>